<svg xmlns="http://www.w3.org/2000/svg" viewBox="0 0 2604.21 629.24"><defs><style>.cls-1{fill:#dd463c;}</style></defs><title>tiras-full</title><g id="Layer_2" data-name="Layer 2"><g id="Layer_1-2" data-name="Layer 1"><g id="Layer_2-2" data-name="Layer 2-2"><polygon points="351.62 353.18 508.02 265.93 537.07 168.11 351.62 271.56 351.62 353.18"/><polygon points="351.62 504 454.35 446.7 483.4 348.88 351.62 422.38 351.62 504"/><polygon points="78.69 265.93 235.1 353.18 235.1 271.56 49.65 168.11 78.69 265.93"/><polygon points="132.37 446.7 235.1 504 235.1 422.38 103.32 348.88 132.37 446.7"/><polygon class="cls-1" points="0 0 0 71.55 235.1 202.69 235.1 121.08 146.3 71.55 440.41 71.55 351.62 121.08 351.62 202.69 586.72 71.55 586.72 0 0 0"/></g><path d="M1788,590v11.11l-26.85,1.32c-6.48.4-9.52-3-9.52-9.52V546.39H1737V535.28h14.68V519.14l12.83-4v20.11h20.9v11.11h-20.9v45.1Z"/><path d="M1828.47,534c19,0,31.62,11.78,31.62,32v4.77H1808.5c.53,11.37,6.35,21,21.69,21,10.19,0,17.07-4.77,19.31-13.76h12.83c-2.11,10.19-10.71,24.47-32.14,24.47-23.94,0-34.12-16.27-34.12-35.18C1796.07,546.12,1809.43,534,1828.47,534Zm19.18,27.78c0-9.39-6.21-17.19-19.18-17.19-12.69,0-20,7.8-20,17.19Z"/><path d="M1907.7,534c13.76,0,30.16,7.68,31.61,26.72h-13c-1.59-11.24-9.39-15.6-18.65-15.6-14.55,0-21.29,10.18-21.29,23s6.74,23.28,21.29,23.28c9.26,0,17.06-4.37,18.65-15.61h13c-1.45,19-17.85,26.72-31.61,26.72-21.29,0-34.12-14.68-34.12-34.39S1886.41,534,1907.7,534Z"/><path d="M2018.28,561.73v39.42h-13V563.58c0-13.36-4.9-18.51-16-18.51-13.49,0-22.75,9.92-22.75,27.77v28.31h-12.83V503.93h12.83V546l-2.25,8.33h3.57c2.65-11.9,11-20.37,25.27-20.37C2008.49,534,2018.28,543.08,2018.28,561.73Z"/><path d="M2047.51,572.84v28.31h-12.83V535.28h12.83V546l-2.25,8.33h3.57c2.65-11.9,11-20.37,25.26-20.37,15.35,0,25.14,9.13,25.14,27.78v39.42h-13V563.58c0-13.36-4.89-18.51-16-18.51C2056.77,545.07,2047.51,555,2047.51,572.84Z"/><path d="M2147.9,534c20.9,0,35.18,14.29,35.18,34.13,0,20.11-14.28,34.39-35.18,34.39s-35.32-14.28-35.32-34.39C2112.58,548.24,2126.87,534,2147.9,534Zm0,57.41c14.28,0,22.22-9.92,22.22-23.28,0-13.09-7.94-23-22.22-23-14.55,0-22.49,9.92-22.49,23C2125.41,581.44,2133.35,591.36,2147.9,591.36Z"/><path d="M2189.43,590h18.38V513.85l-14,1.19V503.93l17.33-1.19c6.48-.53,9.52,3,9.52,9.39V590h18.52v11.11h-49.73Z"/><path d="M2281.22,534c20.9,0,35.18,14.29,35.18,34.13,0,20.11-14.28,34.39-35.18,34.39s-35.31-14.28-35.31-34.39C2245.91,548.24,2260.19,534,2281.22,534Zm0,57.41c14.29,0,22.22-9.92,22.22-23.28,0-13.09-7.93-23-22.22-23-14.55,0-22.48,9.92-22.48,23C2258.74,581.44,2266.67,591.36,2281.22,591.36Z"/><path d="M2413.88,590h18.52V545.2l-14.15,1.19V535.28l17.19-1.33c6.48-.52,9.26,2.91,9.26,8.47V590h18.52v11.11h-49.34ZM2426.71,516c0-5.43,4.24-9.39,10.06-9.39s10.31,4,10.31,9.39-4.36,9.52-10.31,9.52S2426.71,521.52,2426.71,516Z"/><path d="M2502.5,534c19.05,0,31.61,11.78,31.61,32v4.77h-51.58c.53,11.37,6.35,21,21.69,21,10.18,0,17.06-4.77,19.31-13.76h12.83c-2.11,10.19-10.71,24.47-32.14,24.47-23.94,0-34.13-16.27-34.13-35.18C2470.09,546.12,2483.45,534,2502.5,534Zm19.18,27.78c0-9.39-6.22-17.19-19.18-17.19-12.7,0-20,7.8-20,17.19Z"/><path d="M2577.23,602.47c-22,0-30.95-9.92-30.95-25.53h12.83c0,10.19,5.95,15.35,18.39,15.35,9.25,0,13.88-2.25,13.88-8.21,0-7.67-7.93-9-18.65-12.43-12.43-3.83-23.41-7.67-23.41-20.24,0-10.58,9.13-17.46,24.87-17.46,20.9,0,27.78,11.25,27.78,22.36h-12.83c0-7.94-5.16-12.17-14.95-12.17-6.88,0-12,2-12,7.27,0,5.69,4.9,7.68,15.48,11.11,13,4.24,26.58,7.28,26.58,21.3C2604.21,594,2597.6,602.47,2577.23,602.47Z"/><path d="M2387.91,536.44v8.4l2.23,8.27h-3.54c-2.89-9.85-11.16-18-26.25-18-19,0-30.7,14.7-30.7,34s11.68,34,30.7,34c15.09,0,23.36-8.13,26.25-18.11h3.54l-2.23,8.4v24.69l-47.2-1.3-.08,10.46,50.56,2c6.43.13,9.45-3,9.45-9.45V536.44Zm-23.23,55.64c-13,0-22.3-7-22.3-23s9.31-23,22.3-23,23.23,6.83,23.23,23S2377.81,592.08,2364.68,592.08Z"/><rect x="1201.42" y="71.13" width="71.95" height="359.77" rx="2.84" ry="2.84"/><path d="M2051.14,71.09H1901.68a28.36,28.36,0,0,0-27.17,20.28L1783,399.07a2.71,2.71,0,0,0-.11.8v28.2a2.81,2.81,0,0,0,2.81,2.82h60.86a2.8,2.8,0,0,0,2.7-2l20.12-67.95a2.82,2.82,0,0,1,2.71-2h208.39a2.81,2.81,0,0,1,2.7,2l20.12,67.95a2.82,2.82,0,0,0,2.7,2h60.86a2.82,2.82,0,0,0,2.82-2.82h0l0-28.2a3,3,0,0,0-.11-.79L2078.35,91.35A28.34,28.34,0,0,0,2051.14,71.09ZM1892.32,283.37l41-138.25a2.83,2.83,0,0,1,2.73-2h80.47a2.83,2.83,0,0,1,2.73,2l41,138.25a2.81,2.81,0,0,1-1.9,3.5,2.42,2.42,0,0,1-.8.11H1895.06a2.81,2.81,0,0,1-2.85-2.78A2.91,2.91,0,0,1,1892.32,283.37Z"/><path d="M2581.92,260.76l-265.48-78.67a2.82,2.82,0,0,1-2-2.7V145.91a2.83,2.83,0,0,1,2.83-2.83h253.84a2.83,2.83,0,0,0,2-.83l28.3-28.29a2.86,2.86,0,0,0,.82-2V74a2.82,2.82,0,0,0-2.82-2.82H2270.79a28.33,28.33,0,0,0-28.33,28.33h0V214a28.36,28.36,0,0,0,20.32,27.2l265.46,78.68a2.81,2.81,0,0,1,2,2.71v33.52a2.81,2.81,0,0,1-2.8,2.83h0l-253.18.14a2.78,2.78,0,0,0-2,.82l-29,29a2.83,2.83,0,0,0-.83,2v37.16a2.83,2.83,0,0,0,2.83,2.83h328.57a28.37,28.37,0,0,0,28.37-28.36V287.94A28.38,28.38,0,0,0,2581.92,260.76Z"/><path d="M1126.49,112.12V74a2.84,2.84,0,0,0-2.84-2.83H769.56A2.84,2.84,0,0,0,766.72,74h0v66.28a2.84,2.84,0,0,0,2.84,2.84H907.79a2.84,2.84,0,0,1,2.84,2.84h0V428.05a2.84,2.84,0,0,0,2.83,2.84h66.28a2.84,2.84,0,0,0,2.84-2.84h0V145.92a2.84,2.84,0,0,1,2.84-2.84h110.1a2.81,2.81,0,0,0,2-.83l28.14-28.13A2.88,2.88,0,0,0,1126.49,112.12Z"/><path d="M1710.21,101.63a28.69,28.69,0,0,0-28.68-28.69H1362.7a3.69,3.69,0,0,0-3.68,3.69V429.27a3.68,3.68,0,0,0,3.68,3.68h64.64a3.68,3.68,0,0,0,3.68-3.68V337.11a3.67,3.67,0,0,1,2.64-3.53L1553.91,298a3.69,3.69,0,0,1,4.13,1.52l85.59,131.8a3.69,3.69,0,0,0,3.09,1.67h59.81a3.68,3.68,0,0,0,3.68-3.68V402.69a3.7,3.7,0,0,0-.6-2L1631.23,280a3.69,3.69,0,0,1,2-5.54l56.4-16.71a28.67,28.67,0,0,0,20.54-27.5ZM1434.7,145h199.82a3.68,3.68,0,0,1,3.69,3.68v46.52a3.7,3.7,0,0,1-2.64,3.53l-199.82,59.19a3.68,3.68,0,0,1-4.73-3.53V148.63A3.68,3.68,0,0,1,1434.7,145Z"/></g></g></svg>